# xmcd CD database file
#
# Track frame offsets:
#	150
#	21307
#	33930
#	45980
#	60257
#	75237
#	94790
#	104235
#	118312
#	137470
#	148010
#	159880
#	171410
#	191017
#	203965
#	217077
#
# Disc length: 3194 seconds
#
# Revision: 0
# Processed by: cddbd v1.5.1PL0 Copyright (c) Steve Scherf et al.
# Submitted via: CDex 1.51
#
DISCID=de0c7810
DTITLE=Omnibus - JAZZ VOCAL BEST SELECTION[CD3]
DYEAR=1900
DGENRE=Jazz
TTITLE0=A foggy day
TTITLE1=A lover's concerto
TTITLE2=Violet for your furs
TTITLE3=Black Coffee
TTITLE4=Softly as in a morning sunrise
TTITLE5=something cool
TTITLE6=After you've gone
TTITLE7=All of me
TTITLE8=Sweet Georgia Brown
TTITLE9=My Funny Valentine
TTITLE10=Taking a chance on love
TTITLE11=I've got you under my skin
TTITLE12=You'd be so nice to came home to
TTITLE13=Take the "A" train
TTITLE14=on the street wehere you live
TTITLE15=I can't give you anithing but love
EXTD=
EXTT0=
EXTT1=
EXTT2=
EXTT3=
EXTT4=
EXTT5=
EXTT6=
EXTT7=
EXTT8=
EXTT9=
EXTT10=
EXTT11=
EXTT12=
EXTT13=
EXTT14=
EXTT15=
PLAYORDER=
